<svg xmlns="http://www.w3.org/2000/svg" viewBox="0 0 400 300">
  <defs>
    <linearGradient id="purpleGradient" x1="0%" y1="0%" x2="100%" y2="100%">
      <stop offset="0%" stopColor="#6750A4" />
      <stop offset="100%" stopColor="#D0BCFF" />
    </linearGradient>
  </defs>
  <rect width="100%" height="100%" fill="url(#purpleGradient)" />
  <path d="M200 150 L150 100 L250 100 Z" fill="white" stroke="#7D5260" strokeWidth="2" />
  <path d="M150 100 L100 50 L200 50 Z" fill="#FFB6C1" stroke="#7D5260" strokeWidth="2" />
  <path d="M250 100 L300 50 L200 50 Z" fill="#FFB6C1" stroke="#7D5260" strokeWidth="2" />
  <path d="M100 50 L50 0 L150 0 Z" fill="#FFB6C1" stroke="#7D5260" strokeWidth="2" />
  <path d="M300 50 L350 0 L250 0 Z" fill="#FFB6C1" stroke="#7D5260" strokeWidth="2" />
  <path d="M50 0 L0 50 L50 100 Z" fill="#FFB6C1" stroke="#7D5260" strokeWidth="2" />
  <path d="M350 0 L400 50 L350 100 Z" fill="#FFB6C1" stroke="#7D5260" strokeWidth="2" />
  <path d="M0 50 L50 100 L100 50 Z" fill="#FFB6C1" stroke="#7D5260" strokeWidth="2" />
  <path d="M400 50 L350 100 L300 50 Z" fill="#FFB6C1" stroke="#7D5260" strokeWidth="2" />
  <path d="M100 50 L150 100 L200 50 Z" fill="#FFB6C1" stroke="#7D5260" strokeWidth="2" />
  <path d="M300 50 L250 100 L200 50 Z" fill="#FFB6C1" stroke="#7D5260" strokeWidth="2" />
</svg>
